#define gray25_width 32
#define gray25_height 32
static unsigned char gray25_bits[] = {
   0x11, 0x11, 0x11, 0x11, 0x44, 0x44, 0x44, 0x44, 0x11, 0x11, 0x11, 0x11,
   0x44, 0x44, 0x44, 0x44, 0x11, 0x11, 0x11, 0x11, 0x44, 0x44, 0x44, 0x44,
   0x11, 0x11, 0x11, 0x11, 0x44, 0x44, 0x44, 0x44, 0x11, 0x11, 0x11, 0x11,
   0x44, 0x44, 0x44, 0x44, 0x11, 0x11, 0x11, 0x11, 0x44, 0x44, 0x44, 0x44,
   0x11, 0x11, 0x11, 0x11, 0x44, 0x44, 0x44, 0x44, 0x11, 0x11, 0x11, 0x11,
   0x44, 0x44, 0x44, 0x44, 0x11, 0x11, 0x11, 0x11, 0x44, 0x44, 0x44, 0x44,
   0x11, 0x11, 0x11, 0x11, 0x44, 0x44, 0x44, 0x44, 0x11, 0x11, 0x11, 0x11,
   0x44, 0x44, 0x44, 0x44, 0x11, 0x11, 0x11, 0x11, 0x44, 0x44, 0x44, 0x44,
   0x11, 0x11, 0x11, 0x11, 0x44, 0x44, 0x44, 0x44, 0x11, 0x11, 0x11, 0x11,
   0x44, 0x44, 0x44, 0x44, 0x11, 0x11, 0x11, 0x11, 0x44, 0x44, 0x44, 0x44,
   0x11, 0x11, 0x11, 0x11, 0x44, 0x44, 0x44, 0x44 };
