#define ver_1_4_width 32
#define ver_1_4_height 32
static unsigned char ver_1_4_bits[] = {
   0x21, 0x84, 0x10, 0x42, 0x21, 0x84, 0x10, 0x42, 0x21, 0x84, 0x10, 0x42,
   0x21, 0x84, 0x10, 0x42, 0x21, 0x84, 0x10, 0x42, 0x21, 0x84, 0x10, 0x42,
   0x21, 0x84, 0x10, 0x42, 0x21, 0x84, 0x10, 0x42, 0x21, 0x84, 0x10, 0x42,
   0x21, 0x84, 0x10, 0x42, 0x21, 0x84, 0x10, 0x42, 0x21, 0x84, 0x10, 0x42,
   0x21, 0x84, 0x10, 0x42, 0x21, 0x84, 0x10, 0x42, 0x21, 0x84, 0x10, 0x42,
   0x21, 0x84, 0x10, 0x42, 0x21, 0x84, 0x10, 0x42, 0x21, 0x84, 0x10, 0x42,
   0x21, 0x84, 0x10, 0x42, 0x21, 0x84, 0x10, 0x42, 0x21, 0x84, 0x10, 0x42,
   0x21, 0x84, 0x10, 0x42, 0x21, 0x84, 0x10, 0x42, 0x21, 0x84, 0x10, 0x42,
   0x21, 0x84, 0x10, 0x42, 0x21, 0x84, 0x10, 0x42, 0x21, 0x84, 0x10, 0x42,
   0x21, 0x84, 0x10, 0x42, 0x21, 0x84, 0x10, 0x42, 0x21, 0x84, 0x10, 0x42,
   0x21, 0x84, 0x10, 0x42, 0x21, 0x84, 0x10, 0x42 };
