#define ver_1_2_width 32
#define ver_1_2_height 32
static unsigned char ver_1_2_bits[] = {
   0x49, 0x92, 0x24, 0x49, 0x49, 0x92, 0x24, 0x49, 0x49, 0x92, 0x24, 0x49,
   0x49, 0x92, 0x24, 0x49, 0x49, 0x92, 0x24, 0x49, 0x49, 0x92, 0x24, 0x49,
   0x49, 0x92, 0x24, 0x49, 0x49, 0x92, 0x24, 0x49, 0x49, 0x92, 0x24, 0x49,
   0x49, 0x92, 0x24, 0x49, 0x49, 0x92, 0x24, 0x49, 0x49, 0x92, 0x24, 0x49,
   0x49, 0x92, 0x24, 0x49, 0x49, 0x92, 0x24, 0x49, 0x49, 0x92, 0x24, 0x49,
   0x49, 0x92, 0x24, 0x49, 0x49, 0x92, 0x24, 0x49, 0x49, 0x92, 0x24, 0x49,
   0x49, 0x92, 0x24, 0x49, 0x49, 0x92, 0x24, 0x49, 0x49, 0x92, 0x24, 0x49,
   0x49, 0x92, 0x24, 0x49, 0x49, 0x92, 0x24, 0x49, 0x49, 0x92, 0x24, 0x49,
   0x49, 0x92, 0x24, 0x49, 0x49, 0x92, 0x24, 0x49, 0x49, 0x92, 0x24, 0x49,
   0x49, 0x92, 0x24, 0x49, 0x49, 0x92, 0x24, 0x49, 0x49, 0x92, 0x24, 0x49,
   0x49, 0x92, 0x24, 0x49, 0x49, 0x92, 0x24, 0x49 };
